<svg width="256" height="256" viewBox="0 0 256 256" version="1.1" xmlns="http://www.w3.org/2000/svg" xmlns:xlink="http://www.w3.org/1999/xlink"><title>icon</title><defs><linearGradient x1="84.44%" y1="113.683%" x2="38.874%" y2="30.918%" id="linearGradient-1"><stop stop-color="#D6A4A4" offset=".02%"/><stop stop-color="#E6D5F4" offset="41.66%"/><stop stop-color="#DAE2F8" offset="100%"/></linearGradient></defs><g id="icon" stroke="none" stroke-width="1" fill="none" fill-rule="evenodd"><rect id="Rectangle" fill="url(#linearGradient-1)" fill-rule="nonzero" x="0" y="0" width="256" height="256"/><g id="message" transform="translate(33.000000, 28.834227)" fill-rule="nonzero"><g id="Group"><path d="M204.154728,61.4108879 C204.154728,42.145932 188.665857,26.5288217 169.559094,26.5288217 C154.75665,26.5288217 142.13152,35.9057212 137.192051,49.0870325 L12.0935,49.0870325 C6.75010798,49.0870325 2.41870001,53.4543021 2.41870001,58.8419345 L2.41870001,166.833577 C2.41870001,172.221209 6.75010798,176.588479 12.0935,176.588479 L182.551383,176.588479 C187.894775,176.588479 192.226183,172.221209 192.226183,166.833577 L192.226183,87.7505864 C199.52969,81.3547849 204.154728,71.9305742 204.154728,61.4108879 Z" id="Path" fill="#30475E" opacity=".1"/><g transform="translate(0.000000, 11.896469)"><g id="Path"><path d="M180.525964,127.660451 L10.0675969,127.660451 C4.72420485,127.660451 0.392796881,123.293181 0.392796881,117.905549 L0.392796881,9.91390686 C0.392796881,4.52627451 4.72420485,0.159004902 10.0675969,0.159004902 L180.52548,0.159004902 C185.868872,0.159004902 190.20028,4.52627451 190.20028,9.91390686 L190.20028,117.905549 C190.20028,123.293181 185.868872,127.660451 180.525964,127.660451 Z" fill="#CCD6E5" transform="translate(2.025419, 24.837931)"/><g><path d="M190.201731,9.91634559 L190.201731,51.1308064 C184.130794,56.4423505 176.207133,59.6614681 167.533675,59.6614681 C148.425945,59.6614681 132.93659,44.0438701 132.93659,24.7828162 C132.93659,15.1742377 136.791998,6.46798775 143.027406,0.161443627 L180.526931,0.161443627 C185.867421,0.161443627 190.201731,4.52676225 190.201731,9.91634559 Z" fill="#BAC7DB" transform="translate(2.025419, 24.837931)"/><path d="M190.201731,9.91634559 L190.201731,22.2123995 L104.139548,88.8725221 C101.614425,90.8283799 98.4749521,91.9014191 95.2967803,91.9014191 C92.1186085,91.9014191 88.9791359,90.8283799 86.4540131,88.8725221 L0.391829401,22.2123995 L0.391829401,9.91634559 C0.391829401,4.52676225 4.72613981,0.161443627 10.0666294,0.161443627 L180.526931,0.161443627 C185.867421,0.161443627 190.201731,4.52676225 190.201731,9.91634559 Z" fill="#BAC7DB" transform="translate(2.025419, 24.837931)"/><path d="M98.2437244,46.6825711 L190.200764,117.905549 C190.200764,123.293181 185.869356,127.660451 180.525964,127.660451 L10.0675969,127.660451 C4.72420485,127.660451 0.392796881,123.293181 0.392796881,117.905549 L92.3498362,46.6825711 C94.087914,45.3363946 96.5056466,45.3363946 98.2437244,46.6825711 Z" fill="#BFCDE2" transform="translate(2.025419, 24.837931)"/></g><path d="M128.428133,70.0601936 L104.139548,88.8725221 C101.614425,90.8283799 98.4749521,91.9014191 95.2967803,91.9014191 C92.1186085,91.9014191 88.9791359,90.8283799 86.4540131,88.8725221 L62.1654276,70.0601936 L92.3508037,46.6825711 C94.0874303,45.3363946 96.5061303,45.3363946 98.2427569,46.6825711 L128.428133,70.0601936 Z" fill="#ABBCD5" transform="translate(2.025419, 24.837931)"/><path d="M92.3498362,81.1373725 L0.392796881,9.91390686 C0.392796881,4.52627451 4.72420485,0.159004902 10.0675969,0.159004902 L180.52548,0.159004902 C185.868872,0.159004902 190.20028,4.52627451 190.20028,9.91390686 L98.2437244,81.1373725 C96.5056466,82.4830613 94.087914,82.4830613 92.3498362,81.1373725 Z" fill="#BFCDE2" transform="translate(2.025419, 24.837931)"/></g><g id="Path"><path d="M78.3407258,16.1565564 L62.7962245,16.1565564 C61.4606184,16.1565564 60.3775245,15.0644951 60.3775245,13.7178309 L60.3775245,2.91232598 C60.3775245,1.56566176 61.4606184,0.47360049 62.7962245,0.47360049 L78.3407258,0.47360049 C79.6763319,0.47360049 80.7594258,1.56566176 80.7594258,2.91232598 L80.7594258,13.7178309 C80.7594258,15.0649828 79.6763319,16.1565564 78.3407258,16.1565564 Z" fill="#75DC46" transform="translate(74.586420, 123.362441)"/><g fill="#FFF"><path d="M49.7628177,5.23984559 L36.2988822,5.23984559 C34.9627923,5.23984559 33.8801822,4.14778431 33.8801822,2.8011201 C33.8801822,1.45445588 34.9627923,0.362394608 36.2988822,0.362394608 L49.7628177,0.362394608 C51.0989076,0.362394608 52.1815177,1.45445588 52.1815177,2.8011201 C52.1815177,4.14778431 51.0989076,5.23984559 49.7628177,5.23984559 Z" transform="translate(74.586420, 123.362441) translate(0.000000, 0.975490)"/><path d="M49.7628177,15.1810662 L2.43708213,15.1810662 C1.10099224,15.1810662 0.0183821201,14.0890049 0.0183821201,12.7423407 C0.0183821201,11.3956765 1.10099224,10.3036152 2.43708213,10.3036152 L49.7628177,10.3036152 C51.0989076,10.3036152 52.1815177,11.3956765 52.1815177,12.7423407 C52.1815177,14.0890049 51.0989076,15.1810662 49.7628177,15.1810662 Z" transform="translate(74.586420, 123.362441) translate(0.000000, 0.975490)"/></g></g><g><ellipse id="Oval" fill="#F05454" cx="169.559" cy="37.321" rx="34.596" ry="34.882"/><path d="M169.559094,74.6415833 C189.968568,74.6415833 206.573428,57.8997328 206.573428,37.3207917 C206.573428,16.7418505 189.969052,0 169.559094,0 C149.149136,0 132.54476,16.7418505 132.54476,37.3207917 C132.54476,49.2920074 138.170173,59.9570417 146.889103,66.7908382 L98.7956717,104.040907 C97.9292934,104.71302 96.7170409,104.713507 95.8487276,104.040907 L4.92398947,33.6173431 C5.46626202,30.1202108 8.47512483,27.4356618 12.0930163,27.4356618 L123.046525,27.4356618 C124.382615,27.4356618 125.465225,26.3436005 125.465225,24.9969363 C125.465225,23.6502721 124.382615,22.5582108 123.046525,22.5582108 L12.0935,22.5582108 C5.42514412,22.5582108 0,28.0282721 0,34.7518382 L0,142.74348 C0,149.467047 5.42514412,154.937108 12.0935,154.937108 L182.551383,154.937108 C189.219739,154.937108 194.644883,149.467047 194.644883,142.74348 L194.644883,78.2928431 C194.644883,76.9461789 193.562273,75.8541176 192.226183,75.8541176 C190.890093,75.8541176 189.807483,76.9461789 189.807483,78.2928431 L189.807483,137.794819 L126.482047,88.7476593 L151.123763,69.6621936 C156.556163,72.8227819 162.849137,74.6415833 169.559094,74.6415833 Z M68.1623524,88.7476593 L4.83740001,137.794819 L4.83740001,39.7005 L68.1623524,88.7476593 Z M189.711703,143.871635 C189.170881,147.370718 186.170726,150.059657 182.550899,150.059657 L12.0935,150.059657 C8.47367361,150.059657 5.47351812,147.370718 4.93269679,143.871635 L72.1333741,91.8224044 L92.9022673,107.908725 C94.2035279,108.916407 95.7631056,109.420735 97.3226834,109.420735 C98.8822612,109.420735 100.441355,108.916895 101.7431,107.908725 L122.511993,91.8224044 L189.711703,143.871635 Z M137.38216,37.3207917 C137.38216,19.4317647 151.816478,4.87745098 169.559094,4.87745098 C187.30171,4.87745098 201.736028,19.431277 201.736028,37.3207917 C201.736028,55.2103064 187.30171,69.7641324 169.559094,69.7641324 C151.816478,69.7641324 137.38216,55.2098186 137.38216,37.3207917 Z" id="Shape" fill="#30475E"/></g><path d="M154.458666,25.4251765 L159.395717,37.3207917 L154.458666,49.2164069 C153.620345,51.2366471 155.642862,53.2607892 157.63974,52.4004069 L187.447316,39.5634436 C189.405495,38.7201324 189.405495,35.921451 187.447316,35.0781397 L157.63974,22.2411765 C155.642862,21.3807941 153.620345,23.4049363 154.458666,25.4251765 L154.458666,25.4251765 Z" id="Path" fill="#FFF"/><path d="M170.657668,39.5975858 L155.794756,46.0016789 L159.394749,37.3198162 L155.790402,28.6379534 L170.657668,35.0420466 C172.511843,35.8419485 172.511843,38.8025613 170.657668,39.5975858 L170.657668,39.5975858 Z" id="Path" fill="#FFDBED"/></g><path d="M133.519497,14.1376575 C131.722886,14.1376575 129.92676,13.4484737 128.55971,12.0696183 C125.824644,9.31190749 125.824644,4.82514033 128.55971,2.0679173 C131.293325,-0.688817999 135.744217,-0.689793489 138.478799,2.0679173 C141.213865,4.82562808 141.213865,9.31239524 138.478799,12.0696183 C137.11175,13.4484737 135.315623,14.1376575 133.519497,14.1376575 Z M133.519497,4.87489033 C132.962228,4.87489033 132.404476,5.08852269 131.979752,5.51676288 C131.131272,6.37226779 131.131272,7.76478004 131.979752,8.62077269 C132.8292,9.47627759 134.208826,9.47676533 135.058273,8.62077269 C135.906753,7.76526779 135.906753,6.37275553 135.058273,5.51676288 C134.634033,5.08901043 134.076281,4.87489033 133.519497,4.87489033 L133.519497,4.87489033 Z" id="Shape" fill="#75DC46"/><path d="M79.2003317,198.331667 C77.4042051,198.331667 75.6075947,197.641996 74.2405455,196.263628 C71.5054795,193.505917 71.5054795,189.01915 74.2405455,186.261927 C76.974644,183.504704 81.4260195,183.504704 84.160118,186.261927 C86.8951839,189.019638 86.8951839,193.506405 84.160118,196.263628 C82.7930687,197.642483 80.9964584,198.331667 79.2003317,198.331667 L79.2003317,198.331667 Z M79.2003317,189.0689 C78.6430633,189.0689 78.085311,189.282532 77.6605873,189.710773 C76.8121074,190.566278 76.8121074,191.95879 77.6605873,192.814782 C78.5100348,193.670775 79.890145,193.670775 80.7395924,192.814782 C81.5880724,191.959278 81.5880724,190.566765 80.7395924,189.710773 C80.3153524,189.28302 79.7576002,189.0689 79.2003317,189.0689 L79.2003317,189.0689 Z" id="Shape" fill="#75DC46"/><path d="M116.081637,20.4178634 C115.462933,20.4178634 114.843263,20.1798438 114.371616,19.7038046 L111.486107,16.7948928 L108.600598,19.7038046 C107.656821,20.655883 106.124333,20.655883 105.180556,19.7038046 C104.235812,18.7512384 104.235812,17.2070374 105.180556,16.254959 L109.776086,11.6213805 C110.719863,10.6693021 112.252351,10.6693021 113.196128,11.6213805 L117.791658,16.254959 C118.736402,17.2075251 118.736402,18.7517261 117.791658,19.7038046 C117.320011,20.179356 116.700824,20.4178634 116.081637,20.4178634 Z" id="Path" fill="#F05454"/><path d="M186.20749,189.067925 C185.588787,189.067925 184.969116,188.829905 184.497469,188.353866 L181.61196,185.444954 L178.726451,188.353866 C177.782674,189.305944 176.250186,189.305944 175.306409,188.353866 C174.361665,187.4013 174.361665,185.857099 175.306409,184.90502 L179.901939,180.271442 C180.845716,179.319363 182.378204,179.319363 183.321981,180.271442 L187.917511,184.90502 C188.862255,185.857586 188.862255,187.401787 187.917511,188.353866 C187.445864,188.829417 186.826193,189.067925 186.20749,189.067925 Z" id="Path" fill="#F05454"/><path d="M60.0181057,191.384714 C59.3994023,191.384714 58.7797313,191.146694 58.3080848,190.670655 L55.4225757,187.761743 L52.5370666,190.670655 C51.5932899,191.622733 50.0608015,191.622733 49.1170248,190.670655 C48.1722806,189.718089 48.1722806,188.173888 49.1170248,187.221809 L53.7125548,182.588231 C54.6563315,181.636153 56.1888199,181.636153 57.1325966,182.588231 L61.7281266,187.221809 C62.6728708,188.174376 62.6728708,189.718577 61.7281266,190.670655 C61.2559964,191.146207 60.6368092,191.384714 60.0181057,191.384714 Z" id="Path" fill="#30475E"/></g></g></g></svg>